Coordinates
version=1
nRows=11
nColumns=40
inDegrees=yes

Units are S.I. units (second, meters, Newtons, ...)
If the header above contains a line with 'inDegrees', this indicates whether rotational values are in degrees (yes) or radians (no).

endheader
time	pelvis_tilt	pelvis_list	pelvis_rotation	pelvis_tx	pelvis_ty	pelvis_tz	hip_flexion_r	hip_adduction_r	hip_rotation_r	knee_angle_r	knee_angle_r_beta	ankle_angle_r	subtalar_angle_r	mtp_angle_r	hip_flexion_l	hip_adduction_l	hip_rotation_l	knee_angle_l	knee_angle_l_beta	ankle_angle_l	subtalar_angle_l	mtp_angle_l	lumbar_extension	lumbar_bending	lumbar_rotation	arm_flex_r	arm_add_r	arm_rot_r	elbow_flex_r	pro_sup_r	wrist_flex_r	wrist_dev_r	arm_flex_l	arm_add_l	arm_rot_l	elbow_flex_l	pro_sup_l	wrist_flex_l	wrist_dev_l
      0.00000000	     -1.70511713	     -5.31614018	      3.29373518	     -0.17691894	      1.09328138	      0.04121865	     78.48765845	     -1.48794827	      3.12589521	    109.81042917	      1.91655354	     -0.18677960	    -34.31034780	      0.00000000	     33.88268105	    -10.11857634	      4.19392813	     39.24667416	      0.68498368	    -29.74703224	    -29.85120136	      0.00000000	    -56.90690115	      6.62426912	      0.61885530	     85.62934454	     -9.39104602	     20.41432838	     48.23733265	      3.57965858	      0.00000000	      0.00000000	     83.39845243	    -26.13668117	     30.01809621	     61.73247131	     88.75918932	      0.00000000	      0.00000000
      0.00833333	     -1.43694567	     -4.99040107	      3.33514571	     -0.17723842	      1.09440834	      0.04131170	     78.54971108	     -1.42997999	      3.46364606	    108.15571111	      1.88767326	      0.03849753	    -34.34974936	      0.00000000	     34.01659666	     -9.90836232	      4.17274916	     41.45474344	      0.72352176	    -30.18560657	    -29.79865397	      0.00000000	    -57.30489488	      6.45664651	      0.40141014	     85.72248876	     -9.35637983	     20.28243217	     48.33369600	      3.71101285	      0.00000000	      0.00000000	     83.54708033	    -26.06136232	     29.89591639	     61.64876501	     88.74794223	      0.00000000	      0.00000000
      0.01666667	     -1.76875787	     -5.11389931	      3.28378645	     -0.17800011	      1.09438843	      0.04195050	     79.06065446	     -1.04150972	      3.45283600	    106.42232042	      1.85741989	     -0.05863079	    -34.90903170	      0.00000000	     35.22829708	    -10.07914593	      4.46108495	     44.19132235	      0.77128408	    -31.12526110	    -31.30926630	      0.00000000	    -57.05031366	      6.48116773	      0.61231401	     85.72979753	     -9.35706178	     20.03359278	     48.39588925	      3.77289698	      0.00000000	      0.00000000	     83.65732137	    -25.77974465	     29.72365719	     61.34325672	     88.79540640	      0.00000000	      0.00000000
      0.02500000	     -1.71084601	     -4.90475494	      3.16580906	     -0.17857647	      1.09491030	      0.04239020	     78.90543225	     -0.75819696	      3.84242680	    104.15244123	      1.81780302	     -0.34794447	    -34.44653540	      0.00000000	     36.01617182	    -10.05184987	      4.46512477	     47.05905031	      0.82133537	    -31.51657896	    -31.68154170	      0.00000000	    -57.19427673	      6.25297516	      0.42679427	     85.94171004	     -9.19619063	     20.08380852	     48.24547922	      3.83810761	      0.00000000	      0.00000000	     83.89272311	    -25.92502256	     30.10355127	     61.08393384	     88.83140888	      0.00000000	      0.00000000
      0.03333333	     -1.42534693	     -4.43664751	      3.11880575	     -0.17882263	      1.09568835	      0.04244899	     78.30312413	     -0.68235453	      4.39343952	    101.85393794	      1.77768657	     -0.57261324	    -34.28393684	      0.00000000	     36.56420396	     -9.71123334	      4.47451418	     49.98943100	      0.87248016	    -31.85343647	    -31.69049577	      0.00000000	    -57.52517717	      5.92133784	      0.08434539	     86.00920480	     -9.08859546	     19.94432220	     48.29865696	      4.10622019	      0.00000000	      0.00000000	     84.03140512	    -25.89527406	     30.00002689	     60.96650373	     88.77168199	      0.00000000	      0.00000000
      0.04166667	     -1.89950071	     -4.33065674	      2.81040468	     -0.17972787	      1.09516047	      0.04305470	     78.36124944	     -0.21157295	      4.70238440	     99.46024377	      1.73590873	     -1.27779273	    -35.18649673	      0.00000000	     38.13987939	     -9.67059201	      4.58099785	     53.29254710	      0.93013041	    -32.57952055	    -34.17594324	      0.00000000	    -57.05407964	      5.61268069	      0.09786267	     86.09982386	     -8.93811444	     19.94008371	     48.01330829	      3.76440442	      0.00000000	      0.00000000	     84.06663399	    -25.85251643	     29.93343689	     60.80177738	     88.81098304	      0.00000000	      0.00000000
      0.05000000	     -1.87341919	     -4.28232991	      2.62974439	     -0.18017893	      1.09533940	      0.04382762	     77.54291226	      0.12893957	      4.76390683	     96.90426205	      1.69129843	     -1.50303214	    -35.08762061	      0.00000000	     39.28119405	     -9.86430775	      4.66319849	     56.50837665	      0.98625723	    -32.71565679	    -34.21960335	      0.00000000	    -57.11919913	      5.37787228	      0.12288210	     86.19712866	     -8.83586039	     19.94270668	     47.92026187	      3.70306204	      0.00000000	      0.00000000	     84.27658776	    -25.97304040	     30.23681297	     60.71743846	     88.82282978	      0.00000000	      0.00000000
      0.05833333	     -1.62276048	     -3.90696464	      2.59689964	     -0.18027287	      1.09562545	      0.04401091	     76.21375990	      0.13391523	      5.10499440	     94.12358985	      1.64276655	     -2.16885585	    -35.72518039	      0.00000000	     40.15643676	     -9.57812463	      4.74921014	     59.72320763	      1.04236661	    -33.23119961	    -35.18386288	      0.00000000	    -57.36278704	      5.07212092	     -0.17397226	     86.25599126	     -8.72802305	     19.83249937	     47.78965207	      3.78351212	      0.00000000	      0.00000000	     84.36678625	    -25.98425467	     30.25390617	     60.66140795	     88.79377560	      0.00000000	      0.00000000
      0.06666667	     -1.38895606	     -3.45901679	      2.69615562	     -0.18014039	      1.09564907	      0.04380741	     74.68488907	     -0.13431446	      5.44307892	     91.24543579	      1.59253328	     -2.54366627	    -35.99537835	      0.00000000	     41.10235356	     -9.12662408	      4.89895047	     62.98512111	      1.09929774	    -33.56421387	    -35.75020952	      0.00000000	    -57.53350846	      4.85478502	     -0.67449749	     86.25136185	     -8.55914843	     19.73850384	     47.67182090	      3.73467722	      0.00000000	      0.00000000	     84.33951516	    -26.07310133	     30.15832693	     60.70472568	     88.79737447	      0.00000000	      0.00000000
      0.07500000	     -1.06035313	     -2.78666879	      2.76191367	     -0.17972268	      1.09560499	      0.04364279	     72.87983458	     -0.49188261	      5.96602249	     88.30948994	      1.54129136	     -2.72953784	    -35.95384789	      0.00000000	     41.96594588	     -8.57996748	      4.79190976	     66.28346988	      1.15686479	    -33.54748530	    -35.84171689	      0.00000000	    -57.76359723	      4.44855111	     -1.31226345	     86.14683781	     -8.49689866	     19.69755441	     47.70513332	      3.70111831	      0.00000000	      0.00000000	     84.33031799	    -26.14195512	     30.20414252	     60.69282718	     88.79338825	      0.00000000	      0.00000000
      0.08333333	     -0.90608325	     -2.71662328	      2.88822229	     -0.17985847	      1.09563258	      0.04377456	     71.06167604	     -0.75661604	      5.62842852	     85.00360078	      1.48359271	     -3.73700979	    -36.89626500	      0.00000000	     43.22490509	     -8.42297991	      5.33615620	     69.61152405	      1.21495029	    -33.23568947	    -35.83820551	      0.00000000	    -57.89584486	      4.45642904	     -1.48928507	     86.16952427	     -8.38665913	     19.62240428	     47.58719184	      3.63638001	      0.00000000	      0.00000000	     84.42045593	    -26.27856976	     30.39683166	     60.73496944	     88.78927114	      0.00000000	      0.00000000
